<svg xmlns="http://www.w3.org/2000/svg" xmlns:xlink="http://www.w3.org/1999/xlink" width="500" zoomAndPan="magnify" viewBox="0 0 375 374.999991" height="500" preserveAspectRatio="xMidYMid meet" version="1.2"><defs><clipPath id="535926ac07"><path d="M 24.148438 24.703125 L 351 24.703125 L 351 350.296875 L 24.148438 350.296875 Z M 24.148438 24.703125 "/></clipPath><clipPath id="6dcfb9f0d3"><path d="M 50.398438 24.703125 L 324.601562 24.703125 C 331.5625 24.703125 338.242188 27.46875 343.164062 32.390625 C 348.085938 37.3125 350.851562 43.988281 350.851562 50.953125 L 350.851562 324.046875 C 350.851562 331.011719 348.085938 337.6875 343.164062 342.609375 C 338.242188 347.53125 331.5625 350.296875 324.601562 350.296875 L 50.398438 350.296875 C 43.4375 350.296875 36.757812 347.53125 31.835938 342.609375 C 26.914062 337.6875 24.148438 331.011719 24.148438 324.046875 L 24.148438 50.953125 C 24.148438 43.988281 26.914062 37.3125 31.835938 32.390625 C 36.757812 27.46875 43.4375 24.703125 50.398438 24.703125 Z M 50.398438 24.703125 "/></clipPath><clipPath id="363b560f5a"><path d="M 61.589844 58 L 313.585938 58 L 313.585938 317.964844 L 61.589844 317.964844 Z M 61.589844 58 "/></clipPath></defs><g id="83d70ea3d0"><g clip-rule="nonzero" clip-path="url(#535926ac07)"><g clip-rule="nonzero" clip-path="url(#6dcfb9f0d3)"><path style=" stroke:none;fill-rule:nonzero;fill:#132b09;fill-opacity:1;" d="M 24.148438 24.703125 L 351.015625 24.703125 L 351.015625 350.296875 L 24.148438 350.296875 Z M 24.148438 24.703125 "/></g></g><g clip-rule="nonzero" clip-path="url(#363b560f5a)"><path style=" stroke:none;fill-rule:nonzero;fill:#e1f340;fill-opacity:1;" d="M 215.21875 300.183594 C 180.613281 315.285156 139.179688 299.425781 124.785156 262.273438 C 116.15625 240.042969 118.007812 210.914062 135.050781 189.070312 L 239.660156 189.070312 C 267.285156 223.085938 258.25 281.421875 215.21875 300.183594 Z M 282.625 76.25 L 235.359375 76.25 L 235.359375 108.292969 C 225.753906 98.347656 199.914062 71.617188 187.589844 58.890625 C 185.214844 61.351562 90.382812 159.453125 61.742188 189.070312 L 77.417969 189.070312 C 64.742188 218.195312 65.25 253.003906 76.914062 280.75 C 116.105469 374.113281 257.054688 376.121094 298.097656 280.109375 C 310.386719 251.386719 309.832031 216.660156 298.21875 189.070312 L 313.4375 189.070312 L 282.625 157.195312 L 282.625 76.25 "/></g></g></svg>